<mxfile host="app.diagrams.net" modified="2024-01-29T12:36:17.960Z" agent="Mozilla/5.0 (Windows NT 10.0; Win64; x64) AppleWebKit/537.36 (KHTML, like Gecko) Chrome/121.0.0.0 Safari/537.36" etag="hE-MjdbnXCtsvikbhLhy" version="22.1.21" type="device">
  <diagram name="PÃ¡gina-1" id="daohLnkorXD08-z4TbWh">
    <mxGraphModel dx="1571" dy="775" grid="1" gridSize="10" guides="1" tooltips="1" connect="1" arrows="1" fold="1" page="1" pageScale="1" pageWidth="827" pageHeight="1169" math="0" shadow="0">
      <root>
        <mxCell id="0" />
        <mxCell id="1" parent="0" />
        <mxCell id="59fW1srn9NV3QtilJGzt-66" style="edgeStyle=orthogonalEdgeStyle;rounded=0;orthogonalLoop=1;jettySize=auto;html=1;exitX=1;exitY=0.5;exitDx=0;exitDy=0;entryX=0;entryY=0.5;entryDx=0;entryDy=0;" edge="1" parent="1" source="59fW1srn9NV3QtilJGzt-1" target="59fW1srn9NV3QtilJGzt-43">
          <mxGeometry relative="1" as="geometry" />
        </mxCell>
        <mxCell id="59fW1srn9NV3QtilJGzt-67" style="edgeStyle=orthogonalEdgeStyle;rounded=0;orthogonalLoop=1;jettySize=auto;html=1;exitX=0;exitY=0.5;exitDx=0;exitDy=0;entryX=1;entryY=0.5;entryDx=0;entryDy=0;" edge="1" parent="1" source="59fW1srn9NV3QtilJGzt-1" target="59fW1srn9NV3QtilJGzt-45">
          <mxGeometry relative="1" as="geometry" />
        </mxCell>
        <mxCell id="59fW1srn9NV3QtilJGzt-68" style="edgeStyle=orthogonalEdgeStyle;rounded=0;orthogonalLoop=1;jettySize=auto;html=1;exitX=0.5;exitY=1;exitDx=0;exitDy=0;entryX=0.5;entryY=0;entryDx=0;entryDy=0;" edge="1" parent="1" source="59fW1srn9NV3QtilJGzt-1" target="59fW1srn9NV3QtilJGzt-44">
          <mxGeometry relative="1" as="geometry" />
        </mxCell>
        <mxCell id="59fW1srn9NV3QtilJGzt-88" style="edgeStyle=orthogonalEdgeStyle;rounded=0;orthogonalLoop=1;jettySize=auto;html=1;exitX=0.5;exitY=0;exitDx=0;exitDy=0;entryX=0.5;entryY=1;entryDx=0;entryDy=0;" edge="1" parent="1" source="59fW1srn9NV3QtilJGzt-1" target="59fW1srn9NV3QtilJGzt-81">
          <mxGeometry relative="1" as="geometry" />
        </mxCell>
        <mxCell id="59fW1srn9NV3QtilJGzt-145" style="edgeStyle=orthogonalEdgeStyle;rounded=0;orthogonalLoop=1;jettySize=auto;html=1;exitX=1;exitY=0;exitDx=0;exitDy=0;" edge="1" parent="1" source="59fW1srn9NV3QtilJGzt-1" target="59fW1srn9NV3QtilJGzt-146">
          <mxGeometry relative="1" as="geometry">
            <mxPoint x="930" y="650" as="targetPoint" />
          </mxGeometry>
        </mxCell>
        <mxCell id="59fW1srn9NV3QtilJGzt-1" value="&lt;font style=&quot;font-size: 18px;&quot;&gt;Menu&lt;/font&gt;" style="rounded=0;whiteSpace=wrap;html=1;" vertex="1" parent="1">
          <mxGeometry x="700" y="690" width="120" height="60" as="geometry" />
        </mxCell>
        <mxCell id="59fW1srn9NV3QtilJGzt-53" style="edgeStyle=orthogonalEdgeStyle;rounded=0;orthogonalLoop=1;jettySize=auto;html=1;exitX=0.5;exitY=0;exitDx=0;exitDy=0;" edge="1" parent="1" source="59fW1srn9NV3QtilJGzt-2" target="59fW1srn9NV3QtilJGzt-11">
          <mxGeometry relative="1" as="geometry">
            <Array as="points">
              <mxPoint x="450" y="430" />
            </Array>
          </mxGeometry>
        </mxCell>
        <mxCell id="59fW1srn9NV3QtilJGzt-55" style="edgeStyle=orthogonalEdgeStyle;rounded=0;orthogonalLoop=1;jettySize=auto;html=1;exitX=0.25;exitY=0;exitDx=0;exitDy=0;entryX=1;entryY=0.5;entryDx=0;entryDy=0;" edge="1" parent="1" source="59fW1srn9NV3QtilJGzt-2" target="59fW1srn9NV3QtilJGzt-13">
          <mxGeometry relative="1" as="geometry">
            <Array as="points">
              <mxPoint x="440" y="430" />
              <mxPoint x="440" y="400" />
            </Array>
          </mxGeometry>
        </mxCell>
        <mxCell id="59fW1srn9NV3QtilJGzt-56" style="edgeStyle=orthogonalEdgeStyle;rounded=0;orthogonalLoop=1;jettySize=auto;html=1;exitX=0;exitY=0.25;exitDx=0;exitDy=0;entryX=1;entryY=0.5;entryDx=0;entryDy=0;" edge="1" parent="1" source="59fW1srn9NV3QtilJGzt-2" target="59fW1srn9NV3QtilJGzt-14">
          <mxGeometry relative="1" as="geometry" />
        </mxCell>
        <mxCell id="59fW1srn9NV3QtilJGzt-57" style="edgeStyle=orthogonalEdgeStyle;rounded=0;orthogonalLoop=1;jettySize=auto;html=1;exitX=0;exitY=0.5;exitDx=0;exitDy=0;entryX=1;entryY=0.5;entryDx=0;entryDy=0;" edge="1" parent="1" source="59fW1srn9NV3QtilJGzt-2" target="59fW1srn9NV3QtilJGzt-12">
          <mxGeometry relative="1" as="geometry" />
        </mxCell>
        <mxCell id="59fW1srn9NV3QtilJGzt-58" style="edgeStyle=orthogonalEdgeStyle;rounded=0;orthogonalLoop=1;jettySize=auto;html=1;exitX=0;exitY=1;exitDx=0;exitDy=0;entryX=1;entryY=0.5;entryDx=0;entryDy=0;" edge="1" parent="1" source="59fW1srn9NV3QtilJGzt-2" target="59fW1srn9NV3QtilJGzt-10">
          <mxGeometry relative="1" as="geometry" />
        </mxCell>
        <mxCell id="59fW1srn9NV3QtilJGzt-59" style="edgeStyle=orthogonalEdgeStyle;rounded=0;orthogonalLoop=1;jettySize=auto;html=1;exitX=0.5;exitY=1;exitDx=0;exitDy=0;entryX=0.5;entryY=0;entryDx=0;entryDy=0;" edge="1" parent="1" source="59fW1srn9NV3QtilJGzt-2" target="59fW1srn9NV3QtilJGzt-9">
          <mxGeometry relative="1" as="geometry">
            <Array as="points">
              <mxPoint x="470" y="490" />
            </Array>
          </mxGeometry>
        </mxCell>
        <mxCell id="59fW1srn9NV3QtilJGzt-86" style="edgeStyle=orthogonalEdgeStyle;rounded=0;orthogonalLoop=1;jettySize=auto;html=1;exitX=1;exitY=1;exitDx=0;exitDy=0;entryX=0;entryY=0.5;entryDx=0;entryDy=0;" edge="1" parent="1" source="59fW1srn9NV3QtilJGzt-2" target="59fW1srn9NV3QtilJGzt-82">
          <mxGeometry relative="1" as="geometry">
            <Array as="points">
              <mxPoint x="540" y="520" />
            </Array>
          </mxGeometry>
        </mxCell>
        <mxCell id="59fW1srn9NV3QtilJGzt-91" style="edgeStyle=orthogonalEdgeStyle;rounded=0;orthogonalLoop=1;jettySize=auto;html=1;exitX=0.75;exitY=0;exitDx=0;exitDy=0;entryX=0;entryY=0.5;entryDx=0;entryDy=0;" edge="1" parent="1" source="59fW1srn9NV3QtilJGzt-2" target="59fW1srn9NV3QtilJGzt-83">
          <mxGeometry relative="1" as="geometry" />
        </mxCell>
        <mxCell id="59fW1srn9NV3QtilJGzt-2" value="&lt;font style=&quot;font-size: 18px;&quot;&gt;Empleados&lt;/font&gt;" style="rounded=0;whiteSpace=wrap;html=1;" vertex="1" parent="1">
          <mxGeometry x="420" y="430" width="120" height="60" as="geometry" />
        </mxCell>
        <mxCell id="59fW1srn9NV3QtilJGzt-24" style="edgeStyle=orthogonalEdgeStyle;rounded=0;orthogonalLoop=1;jettySize=auto;html=1;exitX=1;exitY=0.25;exitDx=0;exitDy=0;entryX=0;entryY=0.5;entryDx=0;entryDy=0;" edge="1" parent="1" source="59fW1srn9NV3QtilJGzt-3" target="59fW1srn9NV3QtilJGzt-20">
          <mxGeometry relative="1" as="geometry" />
        </mxCell>
        <mxCell id="59fW1srn9NV3QtilJGzt-25" style="edgeStyle=orthogonalEdgeStyle;rounded=0;orthogonalLoop=1;jettySize=auto;html=1;exitX=1;exitY=0.25;exitDx=0;exitDy=0;entryX=0;entryY=0.5;entryDx=0;entryDy=0;" edge="1" parent="1" source="59fW1srn9NV3QtilJGzt-3" target="59fW1srn9NV3QtilJGzt-22">
          <mxGeometry relative="1" as="geometry" />
        </mxCell>
        <mxCell id="59fW1srn9NV3QtilJGzt-26" style="edgeStyle=orthogonalEdgeStyle;rounded=0;orthogonalLoop=1;jettySize=auto;html=1;exitX=1;exitY=0.5;exitDx=0;exitDy=0;entryX=0;entryY=0.5;entryDx=0;entryDy=0;" edge="1" parent="1" source="59fW1srn9NV3QtilJGzt-3" target="59fW1srn9NV3QtilJGzt-18">
          <mxGeometry relative="1" as="geometry" />
        </mxCell>
        <mxCell id="59fW1srn9NV3QtilJGzt-29" style="edgeStyle=orthogonalEdgeStyle;rounded=0;orthogonalLoop=1;jettySize=auto;html=1;exitX=1;exitY=0.75;exitDx=0;exitDy=0;entryX=0;entryY=0.5;entryDx=0;entryDy=0;" edge="1" parent="1" source="59fW1srn9NV3QtilJGzt-3" target="59fW1srn9NV3QtilJGzt-21">
          <mxGeometry relative="1" as="geometry">
            <Array as="points">
              <mxPoint x="1184.5" y="260" />
              <mxPoint x="1210.5" y="260" />
              <mxPoint x="1210.5" y="320" />
            </Array>
          </mxGeometry>
        </mxCell>
        <mxCell id="59fW1srn9NV3QtilJGzt-30" style="edgeStyle=orthogonalEdgeStyle;rounded=0;orthogonalLoop=1;jettySize=auto;html=1;exitX=0.75;exitY=0;exitDx=0;exitDy=0;entryX=0.5;entryY=1;entryDx=0;entryDy=0;" edge="1" parent="1" source="59fW1srn9NV3QtilJGzt-3" target="59fW1srn9NV3QtilJGzt-19">
          <mxGeometry relative="1" as="geometry" />
        </mxCell>
        <mxCell id="59fW1srn9NV3QtilJGzt-71" style="edgeStyle=orthogonalEdgeStyle;rounded=0;orthogonalLoop=1;jettySize=auto;html=1;exitX=0;exitY=0.5;exitDx=0;exitDy=0;" edge="1" parent="1" source="59fW1srn9NV3QtilJGzt-3" target="59fW1srn9NV3QtilJGzt-70">
          <mxGeometry relative="1" as="geometry" />
        </mxCell>
        <mxCell id="59fW1srn9NV3QtilJGzt-111" style="edgeStyle=orthogonalEdgeStyle;rounded=0;orthogonalLoop=1;jettySize=auto;html=1;exitX=0.5;exitY=1;exitDx=0;exitDy=0;entryX=0.5;entryY=0;entryDx=0;entryDy=0;" edge="1" parent="1" source="59fW1srn9NV3QtilJGzt-3" target="59fW1srn9NV3QtilJGzt-23">
          <mxGeometry relative="1" as="geometry" />
        </mxCell>
        <mxCell id="59fW1srn9NV3QtilJGzt-168" style="edgeStyle=orthogonalEdgeStyle;rounded=0;orthogonalLoop=1;jettySize=auto;html=1;exitX=0;exitY=1;exitDx=0;exitDy=0;entryX=0.5;entryY=0;entryDx=0;entryDy=0;" edge="1" parent="1" source="59fW1srn9NV3QtilJGzt-3" target="59fW1srn9NV3QtilJGzt-167">
          <mxGeometry relative="1" as="geometry" />
        </mxCell>
        <mxCell id="59fW1srn9NV3QtilJGzt-3" value="&lt;span style=&quot;font-size: 18px;&quot;&gt;Deportistas&lt;/span&gt;" style="rounded=0;whiteSpace=wrap;html=1;" vertex="1" parent="1">
          <mxGeometry x="1064.5" y="210" width="120" height="60" as="geometry" />
        </mxCell>
        <mxCell id="59fW1srn9NV3QtilJGzt-64" style="edgeStyle=orthogonalEdgeStyle;rounded=0;orthogonalLoop=1;jettySize=auto;html=1;exitX=0.75;exitY=0;exitDx=0;exitDy=0;entryX=0.5;entryY=1;entryDx=0;entryDy=0;" edge="1" parent="1" source="59fW1srn9NV3QtilJGzt-4" target="59fW1srn9NV3QtilJGzt-50">
          <mxGeometry relative="1" as="geometry" />
        </mxCell>
        <mxCell id="59fW1srn9NV3QtilJGzt-65" style="edgeStyle=orthogonalEdgeStyle;rounded=0;orthogonalLoop=1;jettySize=auto;html=1;exitX=0;exitY=0;exitDx=0;exitDy=0;entryX=0.5;entryY=1;entryDx=0;entryDy=0;" edge="1" parent="1" source="59fW1srn9NV3QtilJGzt-4" target="59fW1srn9NV3QtilJGzt-49">
          <mxGeometry relative="1" as="geometry" />
        </mxCell>
        <mxCell id="59fW1srn9NV3QtilJGzt-4" value="&lt;font style=&quot;font-size: 18px;&quot;&gt;Zona&lt;br&gt;Deporte&lt;/font&gt;" style="rounded=0;whiteSpace=wrap;html=1;" vertex="1" parent="1">
          <mxGeometry x="700" y="340" width="120" height="60" as="geometry" />
        </mxCell>
        <mxCell id="59fW1srn9NV3QtilJGzt-129" style="edgeStyle=orthogonalEdgeStyle;rounded=0;orthogonalLoop=1;jettySize=auto;html=1;exitX=0.5;exitY=0;exitDx=0;exitDy=0;entryX=0.5;entryY=1;entryDx=0;entryDy=0;" edge="1" parent="1" source="59fW1srn9NV3QtilJGzt-5" target="59fW1srn9NV3QtilJGzt-126">
          <mxGeometry relative="1" as="geometry" />
        </mxCell>
        <mxCell id="59fW1srn9NV3QtilJGzt-5" value="&lt;font style=&quot;font-size: 18px;&quot;&gt;Zona&lt;br&gt;Restauracion&lt;/font&gt;" style="rounded=0;whiteSpace=wrap;html=1;" vertex="1" parent="1">
          <mxGeometry x="700" y="510" width="120" height="60" as="geometry" />
        </mxCell>
        <mxCell id="59fW1srn9NV3QtilJGzt-61" style="edgeStyle=orthogonalEdgeStyle;rounded=0;orthogonalLoop=1;jettySize=auto;html=1;exitX=1;exitY=0.5;exitDx=0;exitDy=0;" edge="1" parent="1" source="59fW1srn9NV3QtilJGzt-6" target="59fW1srn9NV3QtilJGzt-47">
          <mxGeometry relative="1" as="geometry" />
        </mxCell>
        <mxCell id="59fW1srn9NV3QtilJGzt-62" style="edgeStyle=orthogonalEdgeStyle;rounded=0;orthogonalLoop=1;jettySize=auto;html=1;exitX=0.5;exitY=0;exitDx=0;exitDy=0;entryX=0.5;entryY=1;entryDx=0;entryDy=0;" edge="1" parent="1" source="59fW1srn9NV3QtilJGzt-6" target="59fW1srn9NV3QtilJGzt-48">
          <mxGeometry relative="1" as="geometry" />
        </mxCell>
        <mxCell id="59fW1srn9NV3QtilJGzt-69" style="edgeStyle=orthogonalEdgeStyle;rounded=0;orthogonalLoop=1;jettySize=auto;html=1;exitX=1;exitY=0;exitDx=0;exitDy=0;entryX=0;entryY=0.5;entryDx=0;entryDy=0;" edge="1" parent="1" source="59fW1srn9NV3QtilJGzt-6" target="59fW1srn9NV3QtilJGzt-46">
          <mxGeometry relative="1" as="geometry" />
        </mxCell>
        <mxCell id="59fW1srn9NV3QtilJGzt-154" style="edgeStyle=orthogonalEdgeStyle;rounded=0;orthogonalLoop=1;jettySize=auto;html=1;exitX=1;exitY=0.25;exitDx=0;exitDy=0;" edge="1" parent="1" source="59fW1srn9NV3QtilJGzt-6">
          <mxGeometry relative="1" as="geometry">
            <mxPoint x="820" y="210" as="targetPoint" />
            <Array as="points">
              <mxPoint x="620" y="170" />
              <mxPoint x="750" y="170" />
              <mxPoint x="750" y="211" />
              <mxPoint x="820" y="211" />
            </Array>
          </mxGeometry>
        </mxCell>
        <mxCell id="59fW1srn9NV3QtilJGzt-6" value="&lt;font style=&quot;font-size: 18px;&quot;&gt;Suscripcion&lt;/font&gt;" style="rounded=0;whiteSpace=wrap;html=1;" vertex="1" parent="1">
          <mxGeometry x="500" y="170" width="120" height="60" as="geometry" />
        </mxCell>
        <mxCell id="59fW1srn9NV3QtilJGzt-9" value="Sector" style="ellipse;whiteSpace=wrap;html=1;align=center;" vertex="1" parent="1">
          <mxGeometry x="420" y="530" width="100" height="40" as="geometry" />
        </mxCell>
        <mxCell id="59fW1srn9NV3QtilJGzt-10" value="Telefono" style="ellipse;whiteSpace=wrap;html=1;align=center;" vertex="1" parent="1">
          <mxGeometry x="300" y="530" width="100" height="40" as="geometry" />
        </mxCell>
        <mxCell id="59fW1srn9NV3QtilJGzt-11" value="&lt;u&gt;idEmpleado&lt;/u&gt;" style="ellipse;whiteSpace=wrap;html=1;align=center;" vertex="1" parent="1">
          <mxGeometry x="400" y="350" width="100" height="40" as="geometry" />
        </mxCell>
        <mxCell id="59fW1srn9NV3QtilJGzt-12" value="Salario" style="ellipse;whiteSpace=wrap;html=1;align=center;" vertex="1" parent="1">
          <mxGeometry x="300" y="480" width="100" height="40" as="geometry" />
        </mxCell>
        <mxCell id="59fW1srn9NV3QtilJGzt-13" value="NombreE" style="ellipse;whiteSpace=wrap;html=1;align=center;" vertex="1" parent="1">
          <mxGeometry x="300" y="380" width="100" height="40" as="geometry" />
        </mxCell>
        <mxCell id="59fW1srn9NV3QtilJGzt-14" value="PuestoTrabajo" style="ellipse;whiteSpace=wrap;html=1;align=center;" vertex="1" parent="1">
          <mxGeometry x="300" y="430" width="100" height="40" as="geometry" />
        </mxCell>
        <mxCell id="59fW1srn9NV3QtilJGzt-18" value="Email" style="ellipse;whiteSpace=wrap;html=1;align=center;" vertex="1" parent="1">
          <mxGeometry x="1235.5" y="250" width="100" height="40" as="geometry" />
        </mxCell>
        <mxCell id="59fW1srn9NV3QtilJGzt-19" value="&lt;u&gt;idDeportista&lt;/u&gt;" style="ellipse;whiteSpace=wrap;html=1;align=center;" vertex="1" parent="1">
          <mxGeometry x="1114.5" y="150" width="100" height="40" as="geometry" />
        </mxCell>
        <mxCell id="59fW1srn9NV3QtilJGzt-20" value="NombreD" style="ellipse;whiteSpace=wrap;html=1;align=center;" vertex="1" parent="1">
          <mxGeometry x="1235.5" y="150" width="100" height="40" as="geometry" />
        </mxCell>
        <mxCell id="59fW1srn9NV3QtilJGzt-21" value="Telefono" style="ellipse;whiteSpace=wrap;html=1;align=center;" vertex="1" parent="1">
          <mxGeometry x="1235.5" y="300" width="100" height="40" as="geometry" />
        </mxCell>
        <mxCell id="59fW1srn9NV3QtilJGzt-22" value="ApellidoD" style="ellipse;whiteSpace=wrap;html=1;align=center;" vertex="1" parent="1">
          <mxGeometry x="1235.5" y="200" width="100" height="40" as="geometry" />
        </mxCell>
        <mxCell id="59fW1srn9NV3QtilJGzt-23" value="idZona" style="ellipse;whiteSpace=wrap;html=1;align=center;" vertex="1" parent="1">
          <mxGeometry x="1114.5" y="300" width="100" height="40" as="geometry" />
        </mxCell>
        <mxCell id="59fW1srn9NV3QtilJGzt-43" value="ObjetoMenu" style="ellipse;whiteSpace=wrap;html=1;align=center;" vertex="1" parent="1">
          <mxGeometry x="850" y="700" width="100" height="40" as="geometry" />
        </mxCell>
        <mxCell id="59fW1srn9NV3QtilJGzt-44" value="Precio" style="ellipse;whiteSpace=wrap;html=1;align=center;" vertex="1" parent="1">
          <mxGeometry x="710" y="780" width="100" height="40" as="geometry" />
        </mxCell>
        <mxCell id="59fW1srn9NV3QtilJGzt-45" value="&lt;u&gt;idMenu&lt;/u&gt;" style="ellipse;whiteSpace=wrap;html=1;align=center;" vertex="1" parent="1">
          <mxGeometry x="580" y="700" width="100" height="40" as="geometry" />
        </mxCell>
        <mxCell id="59fW1srn9NV3QtilJGzt-46" value="TipoSubs" style="ellipse;whiteSpace=wrap;html=1;align=center;" vertex="1" parent="1">
          <mxGeometry x="640" y="110" width="100" height="40" as="geometry" />
        </mxCell>
        <mxCell id="59fW1srn9NV3QtilJGzt-47" value="PrecioSubs" style="ellipse;whiteSpace=wrap;html=1;align=center;" vertex="1" parent="1">
          <mxGeometry x="640" y="180" width="100" height="40" as="geometry" />
        </mxCell>
        <mxCell id="59fW1srn9NV3QtilJGzt-48" value="&lt;u&gt;idSubs&lt;/u&gt;" style="ellipse;whiteSpace=wrap;html=1;align=center;" vertex="1" parent="1">
          <mxGeometry x="510" y="110" width="100" height="40" as="geometry" />
        </mxCell>
        <mxCell id="59fW1srn9NV3QtilJGzt-49" value="NumTarjeta" style="ellipse;whiteSpace=wrap;html=1;align=center;" vertex="1" parent="1">
          <mxGeometry x="640" y="280" width="100" height="40" as="geometry" />
        </mxCell>
        <mxCell id="59fW1srn9NV3QtilJGzt-50" value="Zona" style="ellipse;whiteSpace=wrap;html=1;align=center;" vertex="1" parent="1">
          <mxGeometry x="750" y="280" width="100" height="40" as="geometry" />
        </mxCell>
        <mxCell id="59fW1srn9NV3QtilJGzt-75" style="edgeStyle=orthogonalEdgeStyle;rounded=0;orthogonalLoop=1;jettySize=auto;html=1;exitX=0;exitY=0.5;exitDx=0;exitDy=0;entryX=1;entryY=0.75;entryDx=0;entryDy=0;" edge="1" parent="1" source="59fW1srn9NV3QtilJGzt-70" target="59fW1srn9NV3QtilJGzt-4">
          <mxGeometry relative="1" as="geometry">
            <Array as="points">
              <mxPoint x="820" y="390" />
            </Array>
          </mxGeometry>
        </mxCell>
        <mxCell id="59fW1srn9NV3QtilJGzt-70" value="Entrenan" style="shape=rhombus;perimeter=rhombusPerimeter;whiteSpace=wrap;html=1;align=center;" vertex="1" parent="1">
          <mxGeometry x="930" y="370" width="100" height="40" as="geometry" />
        </mxCell>
        <mxCell id="59fW1srn9NV3QtilJGzt-80" style="edgeStyle=orthogonalEdgeStyle;rounded=0;orthogonalLoop=1;jettySize=auto;html=1;exitX=0;exitY=0.5;exitDx=0;exitDy=0;entryX=1;entryY=0;entryDx=0;entryDy=0;" edge="1" parent="1" source="59fW1srn9NV3QtilJGzt-74" target="59fW1srn9NV3QtilJGzt-5">
          <mxGeometry relative="1" as="geometry" />
        </mxCell>
        <mxCell id="59fW1srn9NV3QtilJGzt-74" value="Comen" style="shape=rhombus;perimeter=rhombusPerimeter;whiteSpace=wrap;html=1;align=center;" vertex="1" parent="1">
          <mxGeometry x="930" y="450" width="100" height="40" as="geometry" />
        </mxCell>
        <mxCell id="59fW1srn9NV3QtilJGzt-89" style="edgeStyle=orthogonalEdgeStyle;rounded=0;orthogonalLoop=1;jettySize=auto;html=1;exitX=0.5;exitY=0;exitDx=0;exitDy=0;entryX=0.5;entryY=1;entryDx=0;entryDy=0;" edge="1" parent="1" source="59fW1srn9NV3QtilJGzt-81" target="59fW1srn9NV3QtilJGzt-5">
          <mxGeometry relative="1" as="geometry" />
        </mxCell>
        <mxCell id="59fW1srn9NV3QtilJGzt-81" value="SeSirve" style="shape=rhombus;perimeter=rhombusPerimeter;whiteSpace=wrap;html=1;align=center;" vertex="1" parent="1">
          <mxGeometry x="710" y="610" width="100" height="40" as="geometry" />
        </mxCell>
        <mxCell id="59fW1srn9NV3QtilJGzt-87" style="edgeStyle=orthogonalEdgeStyle;rounded=0;orthogonalLoop=1;jettySize=auto;html=1;exitX=1;exitY=0.5;exitDx=0;exitDy=0;entryX=0;entryY=0.5;entryDx=0;entryDy=0;" edge="1" parent="1" source="59fW1srn9NV3QtilJGzt-82" target="59fW1srn9NV3QtilJGzt-5">
          <mxGeometry relative="1" as="geometry">
            <Array as="points">
              <mxPoint x="660" y="540" />
            </Array>
          </mxGeometry>
        </mxCell>
        <mxCell id="59fW1srn9NV3QtilJGzt-82" value="Trabajan" style="shape=rhombus;perimeter=rhombusPerimeter;whiteSpace=wrap;html=1;align=center;" vertex="1" parent="1">
          <mxGeometry x="560" y="500" width="100" height="40" as="geometry" />
        </mxCell>
        <mxCell id="59fW1srn9NV3QtilJGzt-84" style="edgeStyle=orthogonalEdgeStyle;rounded=0;orthogonalLoop=1;jettySize=auto;html=1;exitX=1;exitY=0.5;exitDx=0;exitDy=0;entryX=0;entryY=0.5;entryDx=0;entryDy=0;" edge="1" parent="1" source="59fW1srn9NV3QtilJGzt-83" target="59fW1srn9NV3QtilJGzt-4">
          <mxGeometry relative="1" as="geometry" />
        </mxCell>
        <mxCell id="59fW1srn9NV3QtilJGzt-83" value="Trabajan" style="shape=rhombus;perimeter=rhombusPerimeter;whiteSpace=wrap;html=1;align=center;" vertex="1" parent="1">
          <mxGeometry x="560" y="380" width="100" height="40" as="geometry" />
        </mxCell>
        <mxCell id="59fW1srn9NV3QtilJGzt-97" style="edgeStyle=orthogonalEdgeStyle;rounded=0;orthogonalLoop=1;jettySize=auto;html=1;exitX=1;exitY=0.25;exitDx=0;exitDy=0;entryX=0;entryY=0.5;entryDx=0;entryDy=0;" edge="1" parent="1" source="59fW1srn9NV3QtilJGzt-103" target="59fW1srn9NV3QtilJGzt-106">
          <mxGeometry relative="1" as="geometry" />
        </mxCell>
        <mxCell id="59fW1srn9NV3QtilJGzt-98" style="edgeStyle=orthogonalEdgeStyle;rounded=0;orthogonalLoop=1;jettySize=auto;html=1;exitX=1;exitY=0.25;exitDx=0;exitDy=0;entryX=0;entryY=0.5;entryDx=0;entryDy=0;" edge="1" parent="1" source="59fW1srn9NV3QtilJGzt-103" target="59fW1srn9NV3QtilJGzt-108">
          <mxGeometry relative="1" as="geometry" />
        </mxCell>
        <mxCell id="59fW1srn9NV3QtilJGzt-99" style="edgeStyle=orthogonalEdgeStyle;rounded=0;orthogonalLoop=1;jettySize=auto;html=1;exitX=1;exitY=0.5;exitDx=0;exitDy=0;entryX=0;entryY=0.5;entryDx=0;entryDy=0;" edge="1" parent="1" source="59fW1srn9NV3QtilJGzt-103" target="59fW1srn9NV3QtilJGzt-104">
          <mxGeometry relative="1" as="geometry" />
        </mxCell>
        <mxCell id="59fW1srn9NV3QtilJGzt-100" style="edgeStyle=orthogonalEdgeStyle;rounded=0;orthogonalLoop=1;jettySize=auto;html=1;exitX=0.75;exitY=1;exitDx=0;exitDy=0;entryX=0.5;entryY=0;entryDx=0;entryDy=0;" edge="1" parent="1" source="59fW1srn9NV3QtilJGzt-103">
          <mxGeometry relative="1" as="geometry">
            <mxPoint x="1160" y="560" as="targetPoint" />
          </mxGeometry>
        </mxCell>
        <mxCell id="59fW1srn9NV3QtilJGzt-101" style="edgeStyle=orthogonalEdgeStyle;rounded=0;orthogonalLoop=1;jettySize=auto;html=1;exitX=1;exitY=0.75;exitDx=0;exitDy=0;entryX=0;entryY=0.5;entryDx=0;entryDy=0;" edge="1" parent="1" source="59fW1srn9NV3QtilJGzt-103" target="59fW1srn9NV3QtilJGzt-107">
          <mxGeometry relative="1" as="geometry">
            <Array as="points">
              <mxPoint x="1184.5" y="520" />
              <mxPoint x="1210.5" y="520" />
              <mxPoint x="1210.5" y="580" />
            </Array>
          </mxGeometry>
        </mxCell>
        <mxCell id="59fW1srn9NV3QtilJGzt-102" style="edgeStyle=orthogonalEdgeStyle;rounded=0;orthogonalLoop=1;jettySize=auto;html=1;exitX=0.75;exitY=0;exitDx=0;exitDy=0;entryX=0.5;entryY=1;entryDx=0;entryDy=0;" edge="1" parent="1" source="59fW1srn9NV3QtilJGzt-103" target="59fW1srn9NV3QtilJGzt-105">
          <mxGeometry relative="1" as="geometry" />
        </mxCell>
        <mxCell id="59fW1srn9NV3QtilJGzt-113" style="edgeStyle=orthogonalEdgeStyle;rounded=0;orthogonalLoop=1;jettySize=auto;html=1;exitX=0;exitY=0.5;exitDx=0;exitDy=0;entryX=1;entryY=0.5;entryDx=0;entryDy=0;" edge="1" parent="1" source="59fW1srn9NV3QtilJGzt-103" target="59fW1srn9NV3QtilJGzt-74">
          <mxGeometry relative="1" as="geometry" />
        </mxCell>
        <mxCell id="59fW1srn9NV3QtilJGzt-103" value="&lt;font style=&quot;font-size: 18px;&quot;&gt;Comensales&lt;/font&gt;" style="rounded=0;whiteSpace=wrap;html=1;" vertex="1" parent="1">
          <mxGeometry x="1064.5" y="470" width="120" height="60" as="geometry" />
        </mxCell>
        <mxCell id="59fW1srn9NV3QtilJGzt-104" value="Email" style="ellipse;whiteSpace=wrap;html=1;align=center;" vertex="1" parent="1">
          <mxGeometry x="1235.5" y="510" width="100" height="40" as="geometry" />
        </mxCell>
        <mxCell id="59fW1srn9NV3QtilJGzt-105" value="&lt;u&gt;idComensal&lt;/u&gt;" style="ellipse;whiteSpace=wrap;html=1;align=center;" vertex="1" parent="1">
          <mxGeometry x="1114.5" y="410" width="100" height="40" as="geometry" />
        </mxCell>
        <mxCell id="59fW1srn9NV3QtilJGzt-106" value="NombreC" style="ellipse;whiteSpace=wrap;html=1;align=center;" vertex="1" parent="1">
          <mxGeometry x="1235.5" y="410" width="100" height="40" as="geometry" />
        </mxCell>
        <mxCell id="59fW1srn9NV3QtilJGzt-107" value="Telefono" style="ellipse;whiteSpace=wrap;html=1;align=center;" vertex="1" parent="1">
          <mxGeometry x="1235.5" y="560" width="100" height="40" as="geometry" />
        </mxCell>
        <mxCell id="59fW1srn9NV3QtilJGzt-108" value="ApellidoC" style="ellipse;whiteSpace=wrap;html=1;align=center;" vertex="1" parent="1">
          <mxGeometry x="1235.5" y="460" width="100" height="40" as="geometry" />
        </mxCell>
        <mxCell id="59fW1srn9NV3QtilJGzt-116" style="edgeStyle=orthogonalEdgeStyle;rounded=0;orthogonalLoop=1;jettySize=auto;html=1;exitX=0;exitY=0.5;exitDx=0;exitDy=0;entryX=1;entryY=0;entryDx=0;entryDy=0;" edge="1" parent="1" source="59fW1srn9NV3QtilJGzt-114" target="59fW1srn9NV3QtilJGzt-4">
          <mxGeometry relative="1" as="geometry" />
        </mxCell>
        <mxCell id="59fW1srn9NV3QtilJGzt-114" value="idZona" style="ellipse;whiteSpace=wrap;html=1;align=center;" vertex="1" parent="1">
          <mxGeometry x="830" y="330" width="100" height="40" as="geometry" />
        </mxCell>
        <mxCell id="59fW1srn9NV3QtilJGzt-117" value="(1,N)" style="text;strokeColor=none;fillColor=none;spacingLeft=4;spacingRight=4;overflow=hidden;rotatable=0;points=[[0,0.5],[1,0.5]];portConstraint=eastwest;fontSize=12;whiteSpace=wrap;html=1;" vertex="1" parent="1">
          <mxGeometry x="1024.5" y="220" width="40" height="30" as="geometry" />
        </mxCell>
        <mxCell id="59fW1srn9NV3QtilJGzt-119" value="(1,N)" style="text;strokeColor=none;fillColor=none;spacingLeft=4;spacingRight=4;overflow=hidden;rotatable=0;points=[[0,0.5],[1,0.5]];portConstraint=eastwest;fontSize=12;whiteSpace=wrap;html=1;" vertex="1" parent="1">
          <mxGeometry x="820" y="370" width="40" height="30" as="geometry" />
        </mxCell>
        <mxCell id="59fW1srn9NV3QtilJGzt-120" value="&lt;b&gt;&lt;font style=&quot;font-size: 15px;&quot;&gt;N:M&lt;/font&gt;&lt;/b&gt;" style="text;strokeColor=none;fillColor=none;spacingLeft=4;spacingRight=4;overflow=hidden;rotatable=0;points=[[0,0.5],[1,0.5]];portConstraint=eastwest;fontSize=12;whiteSpace=wrap;html=1;" vertex="1" parent="1">
          <mxGeometry x="984.5" y="350" width="40" height="30" as="geometry" />
        </mxCell>
        <mxCell id="59fW1srn9NV3QtilJGzt-122" value="(1,N)" style="text;strokeColor=none;fillColor=none;spacingLeft=4;spacingRight=4;overflow=hidden;rotatable=0;points=[[0,0.5],[1,0.5]];portConstraint=eastwest;fontSize=12;whiteSpace=wrap;html=1;" vertex="1" parent="1">
          <mxGeometry x="1030" y="500" width="40" height="30" as="geometry" />
        </mxCell>
        <mxCell id="59fW1srn9NV3QtilJGzt-123" value="&lt;b&gt;&lt;font style=&quot;font-size: 15px;&quot;&gt;1:N&lt;/font&gt;&lt;/b&gt;" style="text;strokeColor=none;fillColor=none;spacingLeft=4;spacingRight=4;overflow=hidden;rotatable=0;points=[[0,0.5],[1,0.5]];portConstraint=eastwest;fontSize=12;whiteSpace=wrap;html=1;" vertex="1" parent="1">
          <mxGeometry x="960" y="420" width="40" height="30" as="geometry" />
        </mxCell>
        <mxCell id="59fW1srn9NV3QtilJGzt-124" value="(1,N)" style="text;strokeColor=none;fillColor=none;spacingLeft=4;spacingRight=4;overflow=hidden;rotatable=0;points=[[0,0.5],[1,0.5]];portConstraint=eastwest;fontSize=12;whiteSpace=wrap;html=1;" vertex="1" parent="1">
          <mxGeometry x="780" y="660" width="40" height="30" as="geometry" />
        </mxCell>
        <mxCell id="59fW1srn9NV3QtilJGzt-125" value="(1,N)" style="text;strokeColor=none;fillColor=none;spacingLeft=4;spacingRight=4;overflow=hidden;rotatable=0;points=[[0,0.5],[1,0.5]];portConstraint=eastwest;fontSize=12;whiteSpace=wrap;html=1;" vertex="1" parent="1">
          <mxGeometry x="780" y="570" width="40" height="30" as="geometry" />
        </mxCell>
        <mxCell id="59fW1srn9NV3QtilJGzt-126" value="&lt;u&gt;idMesa&lt;/u&gt;" style="ellipse;whiteSpace=wrap;html=1;align=center;" vertex="1" parent="1">
          <mxGeometry x="710" y="450" width="100" height="40" as="geometry" />
        </mxCell>
        <mxCell id="59fW1srn9NV3QtilJGzt-130" value="&lt;span style=&quot;font-size: 15px;&quot;&gt;&lt;b&gt;N:M&lt;/b&gt;&lt;/span&gt;" style="text;strokeColor=none;fillColor=none;spacingLeft=4;spacingRight=4;overflow=hidden;rotatable=0;points=[[0,0.5],[1,0.5]];portConstraint=eastwest;fontSize=12;whiteSpace=wrap;html=1;" vertex="1" parent="1">
          <mxGeometry x="670" y="615" width="40" height="30" as="geometry" />
        </mxCell>
        <mxCell id="59fW1srn9NV3QtilJGzt-131" value="&lt;b style=&quot;border-color: var(--border-color);&quot;&gt;&lt;font style=&quot;border-color: var(--border-color); font-size: 15px;&quot;&gt;N:1&lt;/font&gt;&lt;/b&gt;" style="text;strokeColor=none;fillColor=none;spacingLeft=4;spacingRight=4;overflow=hidden;rotatable=0;points=[[0,0.5],[1,0.5]];portConstraint=eastwest;fontSize=12;whiteSpace=wrap;html=1;" vertex="1" parent="1">
          <mxGeometry x="590" y="535" width="40" height="30" as="geometry" />
        </mxCell>
        <mxCell id="59fW1srn9NV3QtilJGzt-133" value="(1,1)" style="text;strokeColor=none;fillColor=none;spacingLeft=4;spacingRight=4;overflow=hidden;rotatable=0;points=[[0,0.5],[1,0.5]];portConstraint=eastwest;fontSize=12;whiteSpace=wrap;html=1;" vertex="1" parent="1">
          <mxGeometry x="660" y="515" width="40" height="30" as="geometry" />
        </mxCell>
        <mxCell id="59fW1srn9NV3QtilJGzt-134" value="(1,N)" style="text;strokeColor=none;fillColor=none;spacingLeft=4;spacingRight=4;overflow=hidden;rotatable=0;points=[[0,0.5],[1,0.5]];portConstraint=eastwest;fontSize=12;whiteSpace=wrap;html=1;" vertex="1" parent="1">
          <mxGeometry x="540" y="485" width="40" height="30" as="geometry" />
        </mxCell>
        <mxCell id="59fW1srn9NV3QtilJGzt-135" value="&lt;b style=&quot;border-color: var(--border-color);&quot;&gt;&lt;font style=&quot;border-color: var(--border-color); font-size: 15px;&quot;&gt;N:1&lt;/font&gt;&lt;/b&gt;" style="text;strokeColor=none;fillColor=none;spacingLeft=4;spacingRight=4;overflow=hidden;rotatable=0;points=[[0,0.5],[1,0.5]];portConstraint=eastwest;fontSize=12;whiteSpace=wrap;html=1;" vertex="1" parent="1">
          <mxGeometry x="600" y="355" width="40" height="30" as="geometry" />
        </mxCell>
        <mxCell id="59fW1srn9NV3QtilJGzt-136" value="(1,N)" style="text;strokeColor=none;fillColor=none;spacingLeft=4;spacingRight=4;overflow=hidden;rotatable=0;points=[[0,0.5],[1,0.5]];portConstraint=eastwest;fontSize=12;whiteSpace=wrap;html=1;" vertex="1" parent="1">
          <mxGeometry x="510" y="400" width="40" height="30" as="geometry" />
        </mxCell>
        <mxCell id="59fW1srn9NV3QtilJGzt-137" value="(1,1)" style="text;strokeColor=none;fillColor=none;spacingLeft=4;spacingRight=4;overflow=hidden;rotatable=0;points=[[0,0.5],[1,0.5]];portConstraint=eastwest;fontSize=12;whiteSpace=wrap;html=1;" vertex="1" parent="1">
          <mxGeometry x="660" y="400" width="40" height="30" as="geometry" />
        </mxCell>
        <mxCell id="59fW1srn9NV3QtilJGzt-138" value="&lt;b style=&quot;border-color: var(--border-color);&quot;&gt;&lt;font style=&quot;border-color: var(--border-color); font-size: 15px;&quot;&gt;1:1&lt;/font&gt;&lt;/b&gt;" style="text;strokeColor=none;fillColor=none;spacingLeft=4;spacingRight=4;overflow=hidden;rotatable=0;points=[[0,0.5],[1,0.5]];portConstraint=eastwest;fontSize=12;whiteSpace=wrap;html=1;" vertex="1" parent="1">
          <mxGeometry x="510" y="295" width="40" height="30" as="geometry" />
        </mxCell>
        <mxCell id="59fW1srn9NV3QtilJGzt-141" value="DiaYHora" style="ellipse;whiteSpace=wrap;html=1;align=center;" vertex="1" parent="1">
          <mxGeometry x="1110" y="560" width="100" height="40" as="geometry" />
        </mxCell>
        <mxCell id="59fW1srn9NV3QtilJGzt-144" style="edgeStyle=orthogonalEdgeStyle;rounded=0;orthogonalLoop=1;jettySize=auto;html=1;exitX=0;exitY=0.5;exitDx=0;exitDy=0;entryX=1;entryY=0.5;entryDx=0;entryDy=0;" edge="1" parent="1" source="59fW1srn9NV3QtilJGzt-143" target="59fW1srn9NV3QtilJGzt-5">
          <mxGeometry relative="1" as="geometry" />
        </mxCell>
        <mxCell id="59fW1srn9NV3QtilJGzt-143" value="MesaNum" style="ellipse;whiteSpace=wrap;html=1;align=center;" vertex="1" parent="1">
          <mxGeometry x="850" y="520" width="100" height="40" as="geometry" />
        </mxCell>
        <mxCell id="59fW1srn9NV3QtilJGzt-146" value="EsComido" style="shape=rhombus;perimeter=rhombusPerimeter;whiteSpace=wrap;html=1;align=center;" vertex="1" parent="1">
          <mxGeometry x="874.5" y="610" width="95.5" height="40" as="geometry" />
        </mxCell>
        <mxCell id="59fW1srn9NV3QtilJGzt-148" value="(1,1)" style="text;strokeColor=none;fillColor=none;spacingLeft=4;spacingRight=4;overflow=hidden;rotatable=0;points=[[0,0.5],[1,0.5]];portConstraint=eastwest;fontSize=12;whiteSpace=wrap;html=1;" vertex="1" parent="1">
          <mxGeometry x="820" y="470" width="40" height="30" as="geometry" />
        </mxCell>
        <mxCell id="59fW1srn9NV3QtilJGzt-149" value="(1,1)" style="text;strokeColor=none;fillColor=none;spacingLeft=4;spacingRight=4;overflow=hidden;rotatable=0;points=[[0,0.5],[1,0.5]];portConstraint=eastwest;fontSize=12;whiteSpace=wrap;html=1;" vertex="1" parent="1">
          <mxGeometry x="827" y="670" width="40" height="30" as="geometry" />
        </mxCell>
        <mxCell id="59fW1srn9NV3QtilJGzt-150" value="(1,N)" style="text;strokeColor=none;fillColor=none;spacingLeft=4;spacingRight=4;overflow=hidden;rotatable=0;points=[[0,0.5],[1,0.5]];portConstraint=eastwest;fontSize=12;whiteSpace=wrap;html=1;" vertex="1" parent="1">
          <mxGeometry x="1110" y="530" width="40" height="30" as="geometry" />
        </mxCell>
        <mxCell id="59fW1srn9NV3QtilJGzt-151" value="&lt;b&gt;&lt;font style=&quot;font-size: 15px;&quot;&gt;1:N&lt;/font&gt;&lt;/b&gt;" style="text;strokeColor=none;fillColor=none;spacingLeft=4;spacingRight=4;overflow=hidden;rotatable=0;points=[[0,0.5],[1,0.5]];portConstraint=eastwest;fontSize=12;whiteSpace=wrap;html=1;" vertex="1" parent="1">
          <mxGeometry x="902.25" y="585" width="40" height="30" as="geometry" />
        </mxCell>
        <mxCell id="59fW1srn9NV3QtilJGzt-156" style="edgeStyle=orthogonalEdgeStyle;rounded=0;orthogonalLoop=1;jettySize=auto;html=1;exitX=1;exitY=0.5;exitDx=0;exitDy=0;entryX=0;entryY=0.25;entryDx=0;entryDy=0;" edge="1" parent="1" source="59fW1srn9NV3QtilJGzt-155" target="59fW1srn9NV3QtilJGzt-3">
          <mxGeometry relative="1" as="geometry" />
        </mxCell>
        <mxCell id="59fW1srn9NV3QtilJGzt-155" value="Tienen" style="shape=rhombus;perimeter=rhombusPerimeter;whiteSpace=wrap;html=1;align=center;" vertex="1" parent="1">
          <mxGeometry x="820" y="190" width="100" height="40" as="geometry" />
        </mxCell>
        <mxCell id="59fW1srn9NV3QtilJGzt-157" value="(1,N)" style="text;strokeColor=none;fillColor=none;spacingLeft=4;spacingRight=4;overflow=hidden;rotatable=0;points=[[0,0.5],[1,0.5]];portConstraint=eastwest;fontSize=12;whiteSpace=wrap;html=1;" vertex="1" parent="1">
          <mxGeometry x="1024.5" y="200" width="40" height="30" as="geometry" />
        </mxCell>
        <mxCell id="59fW1srn9NV3QtilJGzt-158" value="(1,1)" style="text;strokeColor=none;fillColor=none;spacingLeft=4;spacingRight=4;overflow=hidden;rotatable=0;points=[[0,0.5],[1,0.5]];portConstraint=eastwest;fontSize=12;whiteSpace=wrap;html=1;" vertex="1" parent="1">
          <mxGeometry x="620" y="150" width="40" height="30" as="geometry" />
        </mxCell>
        <mxCell id="59fW1srn9NV3QtilJGzt-159" value="&lt;b&gt;&lt;font style=&quot;font-size: 15px;&quot;&gt;1:N&lt;/font&gt;&lt;/b&gt;" style="text;strokeColor=none;fillColor=none;spacingLeft=4;spacingRight=4;overflow=hidden;rotatable=0;points=[[0,0.5],[1,0.5]];portConstraint=eastwest;fontSize=12;whiteSpace=wrap;html=1;" vertex="1" parent="1">
          <mxGeometry x="850" y="170" width="40" height="30" as="geometry" />
        </mxCell>
        <mxCell id="59fW1srn9NV3QtilJGzt-166" style="edgeStyle=orthogonalEdgeStyle;rounded=0;orthogonalLoop=1;jettySize=auto;html=1;exitX=1;exitY=0.5;exitDx=0;exitDy=0;entryX=0.108;entryY=0.972;entryDx=0;entryDy=0;entryPerimeter=0;" edge="1" parent="1" source="59fW1srn9NV3QtilJGzt-146" target="59fW1srn9NV3QtilJGzt-103">
          <mxGeometry relative="1" as="geometry" />
        </mxCell>
        <mxCell id="59fW1srn9NV3QtilJGzt-167" value="FechaInicio" style="ellipse;whiteSpace=wrap;html=1;align=center;" vertex="1" parent="1">
          <mxGeometry x="1010" y="300" width="100" height="40" as="geometry" />
        </mxCell>
      </root>
    </mxGraphModel>
  </diagram>
</mxfile>
